<?xml version="1.0" encoding="utf-8"?>
<!-- Generator: Adobe Illustrator 26.2.1, SVG Export Plug-In . SVG Version: 6.00 Build 0)  -->
<svg version="1.1" id="Layer_1" xmlns="http://www.w3.org/2000/svg" xmlns:xlink="http://www.w3.org/1999/xlink" x="0px" y="0px"
	 viewBox="0 0 1104.84 1130.47" style="enable-background:new 0 0 1104.84 1130.47;" xml:space="preserve">
<style type="text/css">
	.st0{fill:url(#SVGID_1_);}
	.st1{fill:url(#SVGID_00000006671035715272676370000018208232010963209911_);}
	.st2{fill:url(#SVGID_00000042008484489948021790000004219186829922069125_);}
	.st3{fill:url(#SVGID_00000158721105565168512620000013674525175173860489_);}
	.st4{fill:#F0EDDE;}
	.st5{fill:#F2EEE7;}
	.st6{fill:#E8E3DD;}
	.st7{fill:#D8E1E8;}
	.st8{fill:#6BB8CA;}
	.st9{fill:#5C8280;}
	.st10{fill:#CECED0;}
	.st11{opacity:0.5;fill:#CECED0;}
	.st12{fill:url(#SVGID_00000085226580384459679170000018086472391083262856_);}
	.st13{fill:url(#SVGID_00000182524462961477796420000002249643832394398895_);}
	.st14{fill:url(#SVGID_00000001646447907931915810000012190983616685915310_);}
	.st15{fill:url(#SVGID_00000017504608865216333500000007786264433074150287_);}
	.st16{fill:url(#SVGID_00000027578296509461653560000002576911095262704017_);}
	.st17{fill:url(#SVGID_00000132070758722500859910000017555851497970325433_);}
	.st18{fill:url(#SVGID_00000096033605154190086170000004062230975172528559_);}
	.st19{fill:url(#SVGID_00000021081899983353600150000014957374657860459687_);}
	.st20{fill:url(#SVGID_00000175293340164803781160000005442257840248685735_);}
	.st21{fill:url(#SVGID_00000039855989978173148630000003698634008128450976_);}
	.st22{fill:url(#SVGID_00000024718663861530959000000013650998016102628788_);}
	.st23{fill:url(#SVGID_00000093175351659283950890000000411593180547768735_);}
	.st24{fill:url(#SVGID_00000096770212917204537630000008122125595943158705_);}
	.st25{fill:#FFFEFC;}
	.st26{fill:url(#SVGID_00000004541978288955286780000011277745343606963369_);}
	.st27{fill:url(#SVGID_00000142137755990537113600000007017484802664666291_);}
	.st28{fill:url(#SVGID_00000102540408101499030300000011603991398343998636_);}
	.st29{fill:url(#SVGID_00000121259826875202901240000016445986138801368231_);}
	.st30{fill:url(#SVGID_00000056425324721894180340000010045137426228811446_);}
	.st31{clip-path:url(#SVGID_00000063631111609413500270000017959022321819089568_);}
	.st32{fill:url(#SVGID_00000060743114314873157340000016981267744175524489_);}
	.st33{fill:url(#SVGID_00000051344950862373344200000006842899646687120310_);}
	.st34{fill:url(#SVGID_00000052071944147673149210000011167282710242218897_);}
	.st35{fill:url(#SVGID_00000054977389885056922470000017089597328417409692_);}
	.st36{fill:url(#SVGID_00000054979732948870760580000011711303360682186155_);}
	.st37{fill:url(#SVGID_00000063626978471050037070000006215819851202632618_);}
	.st38{fill:url(#SVGID_00000039845491524877729290000008338720424288481970_);}
	.st39{fill:url(#SVGID_00000041975774950420227990000008711212008695235509_);}
	.st40{fill:url(#SVGID_00000141428366246119781650000007395357170955684017_);}
	.st41{fill:url(#SVGID_00000172398048574855086950000017652714989838921405_);}
	.st42{fill:url(#SVGID_00000131356929083019989330000006915083296644700584_);}
	.st43{fill:url(#SVGID_00000101795383969940610510000009019360740050118073_);}
	.st44{fill:url(#SVGID_00000080902837606975393960000015135621619143026083_);}
	.st45{fill:url(#SVGID_00000113316865810435402170000008921625454517316784_);}
	.st46{fill:url(#SVGID_00000124134036295936920770000009957426271850649766_);}
	.st47{fill:url(#SVGID_00000034774363501866246510000004984598961015467664_);}
	.st48{fill:url(#SVGID_00000083057795062927448330000012772359156400220825_);}
	.st49{fill:url(#SVGID_00000116229266267590449420000017469702645571565717_);}
	.st50{fill:url(#SVGID_00000072271920670999294780000013233854013176276657_);}
	.st51{fill:url(#SVGID_00000003068741091040271390000010063561661772981182_);}
	.st52{fill:url(#SVGID_00000078011556262811115920000003885671272570859149_);}
	.st53{fill:url(#SVGID_00000094579468310078392580000006432594617992542128_);}
	.st54{fill:url(#SVGID_00000072986229899474371370000014145350617843401383_);}
	.st55{fill:url(#SVGID_00000115472740478894963510000006027236294981903019_);}
	.st56{fill:url(#SVGID_00000071544595385517499040000008645296908795349427_);}
	.st57{fill:url(#SVGID_00000147215663815419043400000009273992375597528486_);}
	.st58{fill:url(#SVGID_00000086691976740127045360000002548901394477752719_);}
	.st59{fill:url(#SVGID_00000026858930722427399710000012910060011591882392_);}
	.st60{fill:url(#SVGID_00000162324353360757610590000006750124047044404895_);}
</style>
<g>
	<g>
		<linearGradient id="SVGID_1_" gradientUnits="userSpaceOnUse" x1="552.415" y1="-63.1306" x2="552.415" y2="685.4683">
			<stop  offset="0" style="stop-color:#69BFD3"/>
			<stop  offset="1" style="stop-color:#BCE3CC"/>
		</linearGradient>
		<rect class="st0" width="1104.83" height="1130.97"/>
		
			<linearGradient id="SVGID_00000048487621257264163980000017114442322226706367_" gradientUnits="userSpaceOnUse" x1="719.9182" y1="659.2289" x2="576.0671" y2="246.3231">
			<stop  offset="0" style="stop-color:#FFFFFF;stop-opacity:0.8"/>
			<stop  offset="0.2472" style="stop-color:#FDFCFB;stop-opacity:0.6022"/>
			<stop  offset="0.5075" style="stop-color:#F6F4EE;stop-opacity:0.394"/>
			<stop  offset="0.7728" style="stop-color:#EBE7D9;stop-opacity:0.1817"/>
			<stop  offset="1" style="stop-color:#DED7C1;stop-opacity:0"/>
		</linearGradient>
		<circle style="fill:url(#SVGID_00000048487621257264163980000017114442322226706367_);" cx="667.03" cy="507.43" r="244.18"/>
		
			<linearGradient id="SVGID_00000183937622343365787800000010395464524448446380_" gradientUnits="userSpaceOnUse" x1="853.0228" y1="482.8103" x2="853.0228" y2="1138.6918">
			<stop  offset="0" style="stop-color:#FFFFFF"/>
			<stop  offset="0.2726" style="stop-color:#FDF0CA"/>
			<stop  offset="1" style="stop-color:#AED7D1"/>
		</linearGradient>
		<path style="fill:url(#SVGID_00000183937622343365787800000010395464524448446380_);" d="M1104.83,714.5
			c-4.15,3.25-7.31,6.51-7.31,6.51c-9.44-2.36-15.92,5.31-15.92,5.31c-8.26-16.51-18.28-9.44-18.28-9.44
			c-58.97-14.99-81.48-263.13-86.98-338.45l-0.02-21.52c0,0-0.22,4.01-0.7,11.18c-0.48-7.17-0.7-11.18-0.7-11.18l-0.02,21.52
			c-5.49,75.32-28,323.46-86.98,338.45c0,0-10.02-7.08-18.28,9.44c0,0-6.49-7.67-15.92-5.31c0,0-15.33-15.92-23-12.38
			c0,0-1.18-20.64-23-21.82l-9.44,5.31c0,0-2.36-14.74-8.85-15.92v-7.08c0,0-11.2-22.41-21.82-22.41c0,0-18.87,5.31-18.87,12.38
			c0,0-10.22,4.18-10.86,6.77c-1.08-3.75-5.78-18.13-14.5-19.15c0,0-0.59-8.85-14.74-20.64c0,0-10.61,1.18-13.56,0.59
			s-13.56-13.56-13.56-13.56s-14.15,1.18-10.02,5.31c0,0-10.02-10.02-17.1-5.9c0,0,6.49-11.2,0-11.2c0,0-5.9-18.28-16.51-22.41
			c0,0-4.29-2.43-9.31-3.39l-27.1,11.89l-0.27,543.57l503.61,0.43V714.5z"/>
		
			<linearGradient id="SVGID_00000166673286826774821780000008811281984284147647_" gradientUnits="userSpaceOnUse" x1="907.7518" y1="183.3421" x2="1038.5707" y2="422.2286">
			<stop  offset="0" style="stop-color:#FDF0CA"/>
			<stop  offset="0.3548" style="stop-color:#F9EDC9;stop-opacity:0.6452"/>
			<stop  offset="0.7278" style="stop-color:#ECE2C5;stop-opacity:0.2722"/>
			<stop  offset="1" style="stop-color:#DED7C1;stop-opacity:0"/>
		</linearGradient>
		<circle style="fill:url(#SVGID_00000166673286826774821780000008811281984284147647_);" cx="973.7" cy="303.76" r="102.87"/>
		<g>
			<path class="st4" d="M976.89,239.1c0,0-2.86,14.26-2.86,20.01v73.36c0,0,1.09,21.86,2.86,27.23c1.77-5.37,2.86-27.23,2.86-27.23
				v-73.36C979.76,253.36,976.89,239.1,976.89,239.1z"/>
			<path class="st5" d="M979.72,332.36h20.82l1.54-2.72c0,0-1.36-9.78-5.07-13.85c0,0-14.45-19.73-17.26-40.64
				C979.67,321.24,979.72,332.36,979.72,332.36z"/>
			<path class="st6" d="M974.01,332.36h-20.82l-1.54-2.72c0,0,1.36-9.78,5.07-13.85c0,0,14.45-19.73,17.26-40.64
				C974.07,321.24,974.01,332.36,974.01,332.36z"/>
			<polygon class="st7" points="1000.54,332.36 1002.08,329.65 951.65,329.65 953.19,332.36 			"/>
			<polygon class="st8" points="975.57,353.79 976.89,351.49 976.89,322.28 974.36,326.39 974.03,275.24 970.5,289.22 970.5,332.36 
				973.7,332.36 			"/>
			<rect x="965.2" y="329.65" class="st9" width="4.22" height="2.72"/>
			<rect x="983.55" y="329.65" class="st9" width="4.22" height="2.72"/>
			<polygon class="st10" points="974.36,326.39 976.89,322.28 975.56,246.35 974.34,253.9 			"/>
			<polygon class="st11" points="979.56,329.65 978.87,329.65 978.22,246.35 979.58,253.9 			"/>
			<path class="st9" d="M978.24,253.12c-0.41-0.52-1.34-1.86-1.34-1.86s-0.93,1.34-1.34,1.86H975l0.05,1.78l1.85-0.02l1.85,0.02
				l0.05-1.78H978.24z"/>
			<rect x="975" y="255.43" class="st9" width="0.62" height="1.33"/>
			<rect x="978.17" y="255.43" class="st9" width="0.62" height="1.33"/>
		</g>
	</g>
	<g>
		
			<linearGradient id="SVGID_00000139999707630408202420000018292241160551925143_" gradientUnits="userSpaceOnUse" x1="390.0765" y1="564.1451" x2="830.8608" y2="844.3688">
			<stop  offset="0" style="stop-color:#FFFFFF"/>
			<stop  offset="0.648" style="stop-color:#FDF0CA"/>
			<stop  offset="1" style="stop-color:#DED7C1"/>
		</linearGradient>
		<path style="fill:url(#SVGID_00000139999707630408202420000018292241160551925143_);" d="M415.36,710.44L415.36,710.44
			c0-61.34,50.19-111.52,111.52-111.52h186.61c61.34,0,111.52,50.19,111.52,111.52v0c0,61.34-50.19,111.52-111.52,111.52H526.89
			C465.55,821.96,415.36,771.78,415.36,710.44z"/>
		
			<linearGradient id="SVGID_00000175314066430868340850000009820776068341826204_" gradientUnits="userSpaceOnUse" x1="105.0965" y1="422.2167" x2="636.9078" y2="760.3098">
			<stop  offset="0" style="stop-color:#FFFFFF"/>
			<stop  offset="0.648" style="stop-color:#FDF0CA"/>
			<stop  offset="1" style="stop-color:#DED7C1"/>
		</linearGradient>
		<path style="fill:url(#SVGID_00000175314066430868340850000009820776068341826204_);" d="M130.85,598.72L130.85,598.72
			c0-59.78,48.91-108.7,108.7-108.7h286.37c59.78,0,108.7,48.91,108.7,108.7v0c0,59.78-48.91,108.7-108.7,108.7H239.55
			C179.76,707.42,130.85,658.5,130.85,598.72z"/>
		
			<linearGradient id="SVGID_00000124852821012815596130000004871728491512031371_" gradientUnits="userSpaceOnUse" x1="7.2961" y1="620.0027" x2="338.3934" y2="830.4941">
			<stop  offset="0" style="stop-color:#FFFFFF"/>
			<stop  offset="0.648" style="stop-color:#FDF0CA"/>
			<stop  offset="1" style="stop-color:#DED7C1"/>
		</linearGradient>
		<path style="fill:url(#SVGID_00000124852821012815596130000004871728491512031371_);" d="M22.17,729.89L22.17,729.89
			c0-33.77,27.63-61.4,61.4-61.4h193.15c33.77,0,61.4,27.63,61.4,61.4v0c0,33.77-27.63,61.4-61.4,61.4H83.57
			C49.8,791.29,22.17,763.66,22.17,729.89z"/>
		
			<linearGradient id="SVGID_00000183235453705664747940000001316710261763336878_" gradientUnits="userSpaceOnUse" x1="269.0375" y1="741.141" x2="667.1608" y2="994.2434">
			<stop  offset="0" style="stop-color:#FFFFFF"/>
			<stop  offset="0.648" style="stop-color:#FDF0CA"/>
			<stop  offset="1" style="stop-color:#DED7C1"/>
		</linearGradient>
		<path style="fill:url(#SVGID_00000183235453705664747940000001316710261763336878_);" d="M291.03,873.27L291.03,873.27
			c0-52.87,43.26-96.13,96.13-96.13H566.6c52.87,0,96.13,43.26,96.13,96.13v0c0,52.87-43.26,96.13-96.13,96.13H387.16
			C334.29,969.4,291.03,926.14,291.03,873.27z"/>
		
			<linearGradient id="SVGID_00000039133151512461621110000009638676240464867204_" gradientUnits="userSpaceOnUse" x1="507.0098" y1="648.9061" x2="904.077" y2="901.3371">
			<stop  offset="0" style="stop-color:#FFFFFF"/>
			<stop  offset="0.648" style="stop-color:#FDF0CA"/>
			<stop  offset="1" style="stop-color:#DED7C1"/>
		</linearGradient>
		<path style="fill:url(#SVGID_00000039133151512461621110000009638676240464867204_);" d="M528.45,780.69L528.45,780.69
			c0-51.13,41.45-92.59,92.59-92.59h186.53c51.13,0,92.59,41.45,92.59,92.59v0c0,51.13-41.45,92.59-92.59,92.59H621.04
			C569.9,873.27,528.45,831.82,528.45,780.69z"/>
		
			<linearGradient id="SVGID_00000001645659773541698640000001495240714644328111_" gradientUnits="userSpaceOnUse" x1="295.516" y1="650.5182" x2="589.8489" y2="837.6371">
			<stop  offset="0" style="stop-color:#FFFFFF"/>
			<stop  offset="0.648" style="stop-color:#FDF0CA"/>
			<stop  offset="1" style="stop-color:#DED7C1"/>
		</linearGradient>
		<path style="fill:url(#SVGID_00000001645659773541698640000001495240714644328111_);" d="M309.07,748.2L309.07,748.2
			c0-31.01,25.37-56.38,56.38-56.38h167.44c31.01,0,56.38,25.37,56.38,56.38v0c0,31.01-25.37,56.38-56.38,56.38H365.46
			C334.45,804.59,309.07,779.21,309.07,748.2z"/>
		
			<linearGradient id="SVGID_00000034805868868675749240000007978921491376881025_" gradientUnits="userSpaceOnUse" x1="93.3342" y1="726.1752" x2="347.6215" y2="887.8354">
			<stop  offset="0" style="stop-color:#FFFFFF"/>
			<stop  offset="0.648" style="stop-color:#FDF0CA"/>
			<stop  offset="1" style="stop-color:#DED7C1"/>
		</linearGradient>
		<path style="fill:url(#SVGID_00000034805868868675749240000007978921491376881025_);" d="M107.38,810.57L107.38,810.57
			c0-33.77,27.63-61.4,61.4-61.4h114.62c33.77,0,61.4,27.63,61.4,61.4v0c0,33.77-27.63,61.4-61.4,61.4H168.78
			C135.01,871.97,107.38,844.34,107.38,810.57z"/>
		
			<linearGradient id="SVGID_00000025409083519581073850000014641025795378507694_" gradientUnits="userSpaceOnUse" x1="450.8422" y1="685.5743" x2="687.9086" y2="836.2866">
			<stop  offset="0" style="stop-color:#FFFFFF"/>
			<stop  offset="0.648" style="stop-color:#FDF0CA"/>
			<stop  offset="1" style="stop-color:#DED7C1"/>
		</linearGradient>
		<path style="fill:url(#SVGID_00000025409083519581073850000014641025795378507694_);" d="M461.33,764.25L461.33,764.25
			c0-23.61,19.14-42.76,42.76-42.76h141.05c23.61,0,42.76,19.14,42.76,42.76v0c0,23.61-19.14,42.76-42.76,42.76H504.08
			C480.47,807.01,461.33,787.87,461.33,764.25z"/>
		
			<linearGradient id="SVGID_00000108303887023146799670000000728848023304933015_" gradientUnits="userSpaceOnUse" x1="555.3782" y1="760.2375" x2="895.9631" y2="976.7606">
			<stop  offset="0" style="stop-color:#FFFFFF"/>
			<stop  offset="0.648" style="stop-color:#FDF0CA"/>
			<stop  offset="1" style="stop-color:#DED7C1"/>
		</linearGradient>
		<path style="fill:url(#SVGID_00000108303887023146799670000000728848023304933015_);" d="M564.91,873.27L564.91,873.27
			c0-17.47,14.29-31.76,31.76-31.76H869.7c17.47,0,31.76,14.29,31.76,31.76v0c0,17.47-14.29,31.76-31.76,31.76H596.66
			C579.2,905.03,564.91,890.74,564.91,873.27z"/>
	</g>
	<g>
		
			<linearGradient id="SVGID_00000175306204976980215270000008637938443876716457_" gradientUnits="userSpaceOnUse" x1="660.6704" y1="634.4959" x2="732.9385" y2="634.4959">
			<stop  offset="0" style="stop-color:#C5E8DA"/>
			<stop  offset="1" style="stop-color:#71A6B0"/>
		</linearGradient>
		<polygon style="fill:url(#SVGID_00000175306204976980215270000008637938443876716457_);" points="660.67,704.63 732.94,704.63 
			732.94,564.36 660.67,608.82 		"/>
		
			<linearGradient id="SVGID_00000008832832205756582720000016056044292461479600_" gradientUnits="userSpaceOnUse" x1="774.6204" y1="508.8823" x2="774.6204" y2="627.304">
			<stop  offset="0" style="stop-color:#4B6D8A"/>
			<stop  offset="1" style="stop-color:#71A6B0"/>
		</linearGradient>
		<polygon style="fill:url(#SVGID_00000008832832205756582720000016056044292461479600_);" points="816.3,704.63 816.3,582.68 
			732.94,564.36 732.94,704.63 		"/>
		
			<linearGradient id="SVGID_00000016076965468102058540000001511888947286941579_" gradientUnits="userSpaceOnUse" x1="559.699" y1="584.9241" x2="770.338" y2="571.4349">
			<stop  offset="0" style="stop-color:#C5E8DA"/>
			<stop  offset="1" style="stop-color:#71A6B0"/>
		</linearGradient>
		<polygon style="fill:url(#SVGID_00000016076965468102058540000001511888947286941579_);" points="816.3,571.66 684.76,542.07 
			601.22,604.72 660.67,613.31 660.67,608.82 732.94,564.36 816.3,582.68 		"/>
		
			<linearGradient id="SVGID_00000181770946455530397350000017136483645594272688_" gradientUnits="userSpaceOnUse" x1="750.531" y1="453.8878" x2="750.531" y2="583.5916">
			<stop  offset="0" style="stop-color:#C5E8DA"/>
			<stop  offset="1" style="stop-color:#71A6B0"/>
		</linearGradient>
		<polygon style="fill:url(#SVGID_00000181770946455530397350000017136483645594272688_);" points="684.76,526.46 752.96,543.09 
			753.54,493.02 684.82,473.99 684.82,455.97 816.3,494.94 816.3,571.66 684.76,542.07 		"/>
		<polygon class="st25" points="600.25,537.23 601.22,604.72 684.76,542.07 684.76,526.46 605.64,588.74 604.58,547.8 
			684.82,473.99 684.82,455.97 		"/>
		
			<linearGradient id="SVGID_00000111872104940246991310000010591003807339316150_" gradientUnits="userSpaceOnUse" x1="604.5793" y1="568.2687" x2="627.4612" y2="568.2687">
			<stop  offset="0" style="stop-color:#C5E8DA"/>
			<stop  offset="1" style="stop-color:#71A6B0"/>
		</linearGradient>
		<polygon style="fill:url(#SVGID_00000111872104940246991310000010591003807339316150_);" points="627.46,571.56 604.58,547.8 
			605.64,588.74 		"/>
		
			<linearGradient id="SVGID_00000165943400687210933910000006801875778160787591_" gradientUnits="userSpaceOnUse" x1="550.9641" y1="501.6462" x2="641.2379" y2="572.2051">
			<stop  offset="0" style="stop-color:#C5E8DA"/>
			<stop  offset="1" style="stop-color:#71A6B0"/>
		</linearGradient>
		<polygon style="fill:url(#SVGID_00000165943400687210933910000006801875778160787591_);" points="631.58,554.54 631.58,567.95 
			627.46,571.56 604.58,547.8 		"/>
		
			<linearGradient id="SVGID_00000006695174667912191480000002752672251364052907_" gradientUnits="userSpaceOnUse" x1="604.5793" y1="514.2642" x2="717.5521" y2="514.2642">
			<stop  offset="0" style="stop-color:#C5E8DA"/>
			<stop  offset="1" style="stop-color:#71A6B0"/>
		</linearGradient>
		<polygon style="fill:url(#SVGID_00000006695174667912191480000002752672251364052907_);" points="632.74,553.73 717.55,483.06 
			684.82,473.99 604.58,547.8 631.58,554.54 		"/>
		
			<linearGradient id="SVGID_00000015326230337863989080000017217228740890051712_" gradientUnits="userSpaceOnUse" x1="631.5837" y1="525.5025" x2="717.6625" y2="525.5025">
			<stop  offset="0" style="stop-color:#FBAE94"/>
			<stop  offset="1" style="stop-color:#DB9BB5"/>
		</linearGradient>
		<polygon style="fill:url(#SVGID_00000015326230337863989080000017217228740890051712_);" points="717.66,487.45 717.55,534.46 
			684.76,526.46 631.58,567.95 631.58,554.14 717.55,483.06 		"/>
		
			<linearGradient id="SVGID_00000091699127794108539670000017293073055923176848_" gradientUnits="userSpaceOnUse" x1="717.5521" y1="513.0734" x2="753.5363" y2="513.0734">
			<stop  offset="0" style="stop-color:#FBAE94"/>
			<stop  offset="1" style="stop-color:#DBA7A9"/>
		</linearGradient>
		<polygon style="fill:url(#SVGID_00000091699127794108539670000017293073055923176848_);" points="753.28,515.22 753.54,493.02 
			717.55,483.06 717.55,534.46 752.96,543.09 		"/>
	</g>
	<g>
		<defs>
			<rect id="SVGID_00000183236480017899006640000016681806935968785855_" y="812.45" width="574.6" height="318.72"/>
		</defs>
		<clipPath id="SVGID_00000011028337446662227560000012002315738830722231_">
			<use xlink:href="#SVGID_00000183236480017899006640000016681806935968785855_"  style="overflow:visible;"/>
		</clipPath>
		<g style="clip-path:url(#SVGID_00000011028337446662227560000012002315738830722231_);">
			
				<linearGradient id="SVGID_00000055705484683524888090000006701428718115953542_" gradientUnits="userSpaceOnUse" x1="111.9006" y1="828.0747" x2="111.9006" y2="986.2596">
				<stop  offset="2.770450e-07" style="stop-color:#246823"/>
				<stop  offset="1" style="stop-color:#1B351D"/>
			</linearGradient>
			<path style="fill:url(#SVGID_00000055705484683524888090000006701428718115953542_);" d="M111.9,986.09L111.9,986.09
				c-17.63,0-32.06-14.43-32.06-32.06v-68.35c0-17.63,14.43-32.06,32.06-32.06h0c17.63,0,32.06,14.43,32.06,32.06v68.35
				C143.96,971.66,129.53,986.09,111.9,986.09z"/>
			
				<linearGradient id="SVGID_00000069376303665177412260000008782744284200325261_" gradientUnits="userSpaceOnUse" x1="261.7739" y1="777.6731" x2="261.7739" y2="1042.3413">
				<stop  offset="2.770450e-07" style="stop-color:#246823"/>
				<stop  offset="1" style="stop-color:#1B351D"/>
			</linearGradient>
			<path style="fill:url(#SVGID_00000069376303665177412260000008782744284200325261_);" d="M261.77,1042.05L261.77,1042.05
				c-26.02,0-47.3-21.28-47.3-47.3V867.71c0-26.02,21.28-47.3,47.3-47.3h0c26.01,0,47.3,21.28,47.3,47.3v127.05
				C309.07,1020.77,287.79,1042.05,261.77,1042.05z"/>
			
				<linearGradient id="SVGID_00000010278156853638835140000013725037356243623856_" gradientUnits="userSpaceOnUse" x1="291.0296" y1="857.942" x2="291.0296" y2="1103.0723">
				<stop  offset="2.770450e-07" style="stop-color:#246823"/>
				<stop  offset="1" style="stop-color:#1B351D"/>
			</linearGradient>
			<path style="fill:url(#SVGID_00000010278156853638835140000013725037356243623856_);" d="M291.03,1179.06L291.03,1179.06
				c-17.63,0-32.06-14.43-32.06-32.06v-123.63c0-17.63,14.43-32.06,32.06-32.06h0c17.63,0,32.06,14.43,32.06,32.06V1147
				C323.09,1164.63,308.66,1179.06,291.03,1179.06z"/>
			
				<linearGradient id="SVGID_00000067195251528286213180000007950651814961627558_" gradientUnits="userSpaceOnUse" x1="337.2132" y1="852.9927" x2="337.2132" y2="1109.7708">
				<stop  offset="2.770450e-07" style="stop-color:#246823"/>
				<stop  offset="1" style="stop-color:#1B351D"/>
			</linearGradient>
			<path style="fill:url(#SVGID_00000067195251528286213180000007950651814961627558_);" d="M337.21,1185.9L337.21,1185.9
				c-25.04,0-45.52-20.48-45.52-45.52V931.41c0-25.04,20.48-45.52,45.52-45.52h0c25.04,0,45.52,20.48,45.52,45.52v208.97
				C382.73,1165.42,362.25,1185.9,337.21,1185.9z"/>
			
				<linearGradient id="SVGID_00000067214565899669416990000013778925017246111909_" gradientUnits="userSpaceOnUse" x1="47.5001" y1="861.0058" x2="47.5001" y2="1085.4196">
				<stop  offset="2.770450e-07" style="stop-color:#246823"/>
				<stop  offset="1" style="stop-color:#1B351D"/>
			</linearGradient>
			<path style="fill:url(#SVGID_00000067214565899669416990000013778925017246111909_);" d="M47.5,1173.52L47.5,1173.52
				c-35.42,0-64.4-28.98-64.4-64.4V973.15c0-35.42,28.98-64.4,64.4-64.4h0c35.42,0,64.4,28.98,64.4,64.4v135.97
				C111.9,1144.54,82.92,1173.52,47.5,1173.52z"/>
			
				<linearGradient id="SVGID_00000096744214182537378730000003982120014228832931_" gradientUnits="userSpaceOnUse" x1="457.1689" y1="880.9207" x2="457.1689" y2="1129.4736">
				<stop  offset="2.770450e-07" style="stop-color:#246823"/>
				<stop  offset="1" style="stop-color:#1B351D"/>
			</linearGradient>
			<path style="fill:url(#SVGID_00000096744214182537378730000003982120014228832931_);" d="M457.17,1217.57L457.17,1217.57
				c-61.81,0-112.38-50.57-112.38-112.38v-40.02c0-61.81,50.57-112.38,112.38-112.38h0c61.81,0,112.38,50.57,112.38,112.38v40.02
				C569.55,1167,518.98,1217.57,457.17,1217.57z"/>
			
				<linearGradient id="SVGID_00000017481912909022056110000016792329446554283183_" gradientUnits="userSpaceOnUse" x1="214.4739" y1="936.0696" x2="214.4739" y2="1146.4333">
				<stop  offset="2.770450e-07" style="stop-color:#246823"/>
				<stop  offset="1" style="stop-color:#1B351D"/>
			</linearGradient>
			<path style="fill:url(#SVGID_00000017481912909022056110000016792329446554283183_);" d="M214.47,1198.97L214.47,1198.97
				c-32.37,0-58.85-26.48-58.85-58.85v-109.86c0-32.37,26.48-58.85,58.85-58.85h0c32.37,0,58.85,26.48,58.85,58.85v109.86
				C273.33,1172.49,246.84,1198.97,214.47,1198.97z"/>
			
				<linearGradient id="SVGID_00000056404018692449405330000006312508837586677896_" gradientUnits="userSpaceOnUse" x1="137.1721" y1="942.1973" x2="137.1721" y2="1074.422">
				<stop  offset="2.770450e-07" style="stop-color:#246823"/>
				<stop  offset="1" style="stop-color:#1B351D"/>
			</linearGradient>
			<path style="fill:url(#SVGID_00000056404018692449405330000006312508837586677896_);" d="M137.17,1150.54L137.17,1150.54
				c-22.35,0-40.64-18.29-40.64-40.64V993.57c0-22.35,18.29-40.64,40.64-40.64h0c22.35,0,40.64,18.29,40.64,40.64v116.34
				C177.81,1132.25,159.52,1150.54,137.17,1150.54z"/>
		</g>
	</g>
	
		<linearGradient id="SVGID_00000091007111278299632860000005547004980310069429_" gradientUnits="userSpaceOnUse" x1="874.5698" y1="573.9611" x2="874.5698" y2="796.5374">
		<stop  offset="0" style="stop-color:#FFFFFF"/>
		<stop  offset="0.2726" style="stop-color:#FDF0CA"/>
		<stop  offset="1" style="stop-color:#AED7D1"/>
	</linearGradient>
	<path style="fill:url(#SVGID_00000091007111278299632860000005547004980310069429_);" d="M874.57,588.48
		c-112.6,0-203.89,91.28-203.89,203.89h407.77C1078.46,679.76,987.17,588.48,874.57,588.48z"/>
	<g>
		<g>
			
				<linearGradient id="SVGID_00000144307048129879579260000001465112788841014966_" gradientUnits="userSpaceOnUse" x1="607.7501" y1="1283.8344" x2="607.7501" y2="917.8891">
				<stop  offset="0" style="stop-color:#C5E8DA"/>
				<stop  offset="1" style="stop-color:#71A6B0"/>
			</linearGradient>
			<polygon style="fill:url(#SVGID_00000144307048129879579260000001465112788841014966_);" points="544.52,1130.97 670.98,1130.97 
				670.98,851.16 544.52,928.96 			"/>
			
				<linearGradient id="SVGID_00000100367699722874895130000000851521355331989892_" gradientUnits="userSpaceOnUse" x1="670.9792" y1="991.0651" x2="1104.83" y2="991.0651">
				<stop  offset="0" style="stop-color:#C5E8DA"/>
				<stop  offset="1" style="stop-color:#71A6B0"/>
			</linearGradient>
			<polygon style="fill:url(#SVGID_00000100367699722874895130000000851521355331989892_);" points="1103.5,1130.97 1104.83,944.91 
				670.98,851.16 670.98,1130.97 			"/>
			
				<linearGradient id="SVGID_00000112612958847059601300000011673319077323456919_" gradientUnits="userSpaceOnUse" x1="321.877" y1="865.3673" x2="648.1782" y2="877.5654">
				<stop  offset="0" style="stop-color:#C5E8DA"/>
				<stop  offset="1" style="stop-color:#71A6B0"/>
			</linearGradient>
			<polygon style="fill:url(#SVGID_00000112612958847059601300000011673319077323456919_);" points="1104.83,925.63 586.67,812.15 
				440.48,921.79 544.52,936.81 544.52,928.96 670.98,851.16 1104.83,944.91 			"/>
			
				<linearGradient id="SVGID_00000173866990486351338090000016909122816778169255_" gradientUnits="userSpaceOnUse" x1="845.7557" y1="701.4545" x2="845.7557" y2="945.4382">
				<stop  offset="0" style="stop-color:#C5E8DA"/>
				<stop  offset="1" style="stop-color:#71A6B0"/>
			</linearGradient>
			<polygon style="fill:url(#SVGID_00000173866990486351338090000016909122816778169255_);" points="586.67,784.85 706.02,813.95 
				707.03,726.33 586.79,693.04 586.79,661.5 1104.84,791.21 1104.84,925.64 586.68,812.15 			"/>
			
				<linearGradient id="SVGID_00000070076520530662233810000012499618732779753918_" gradientUnits="userSpaceOnUse" x1="512.7944" y1="657.1531" x2="512.7944" y2="982.0583">
				<stop  offset="0" style="stop-color:#FFFFFF"/>
				<stop  offset="0.648" style="stop-color:#FDF0CA"/>
				<stop  offset="1" style="stop-color:#DED7C1"/>
			</linearGradient>
			<polygon style="fill:url(#SVGID_00000070076520530662233810000012499618732779753918_);" points="438.8,803.68 440.48,921.79 
				586.67,812.15 586.67,784.85 448.22,893.82 446.37,822.18 586.79,693.03 586.79,661.49 			"/>
			
				<linearGradient id="SVGID_00000168109846521455305140000009138913378512418956_" gradientUnits="userSpaceOnUse" x1="446.3702" y1="857.9984" x2="486.4101" y2="857.9984">
				<stop  offset="0" style="stop-color:#C5E8DA"/>
				<stop  offset="1" style="stop-color:#71A6B0"/>
			</linearGradient>
			<polygon style="fill:url(#SVGID_00000168109846521455305140000009138913378512418956_);" points="486.41,863.76 446.37,822.18 
				448.22,893.82 			"/>
			
				<linearGradient id="SVGID_00000074439686555768493510000001115200149332436101_" gradientUnits="userSpaceOnUse" x1="401.758" y1="760.6041" x2="499.3553" y2="858.2014">
				<stop  offset="0" style="stop-color:#C5E8DA"/>
				<stop  offset="1" style="stop-color:#71A6B0"/>
			</linearGradient>
			<polygon style="fill:url(#SVGID_00000074439686555768493510000001115200149332436101_);" points="493.62,833.97 493.62,857.44 
				486.41,863.76 446.37,822.18 			"/>
			
				<linearGradient id="SVGID_00000163035908088063121790000013871187130190645935_" gradientUnits="userSpaceOnUse" x1="446.3702" y1="763.4988" x2="644.0554" y2="763.4988">
				<stop  offset="0" style="stop-color:#C5E8DA"/>
				<stop  offset="1" style="stop-color:#71A6B0"/>
			</linearGradient>
			<polygon style="fill:url(#SVGID_00000163035908088063121790000013871187130190645935_);" points="495.64,832.55 644.06,708.89 
				586.79,693.03 446.37,822.18 493.62,833.97 			"/>
			
				<linearGradient id="SVGID_00000093896577499370764910000004508345821934941069_" gradientUnits="userSpaceOnUse" x1="493.6239" y1="783.1641" x2="644.2484" y2="783.1641">
				<stop  offset="0" style="stop-color:#FBAE94"/>
				<stop  offset="1" style="stop-color:#DB9BB5"/>
			</linearGradient>
			<polygon style="fill:url(#SVGID_00000093896577499370764910000004508345821934941069_);" points="644.25,716.57 644.05,798.84 
				586.67,784.85 493.62,857.44 493.62,833.97 644.06,708.89 			"/>
			
				<linearGradient id="SVGID_00000098935937687141708570000018235850094955681441_" gradientUnits="userSpaceOnUse" x1="644.0549" y1="761.4151" x2="707.022" y2="761.4151">
				<stop  offset="0" style="stop-color:#FBAE94"/>
				<stop  offset="1" style="stop-color:#DBA7A9"/>
			</linearGradient>
			<polygon style="fill:url(#SVGID_00000098935937687141708570000018235850094955681441_);" points="706.57,765.17 707.02,726.33 
				644.06,708.89 644.05,798.84 706.01,813.94 			"/>
		</g>
		<g>
			
				<linearGradient id="SVGID_00000028306890110013469570000015620331125041939126_" gradientUnits="userSpaceOnUse" x1="897.8678" y1="1141.5824" x2="897.8678" y2="1011.3607">
				<stop  offset="0" style="stop-color:#C5E8DA"/>
				<stop  offset="0.5021" style="stop-color:#71A6B0"/>
			</linearGradient>
			<polygon style="fill:url(#SVGID_00000028306890110013469570000015620331125041939126_);" points="834.34,1130.47 961.39,1130.47 
				961.39,1021.93 834.34,1100.09 			"/>
			
				<linearGradient id="SVGID_00000039814202141420597390000006582879206801814189_" gradientUnits="userSpaceOnUse" x1="1033.1116" y1="965.1519" x2="1033.1116" y2="1152.9127">
				<stop  offset="0" style="stop-color:#C5E8DA"/>
				<stop  offset="1" style="stop-color:#71A6B0"/>
			</linearGradient>
			<polygon style="fill:url(#SVGID_00000039814202141420597390000006582879206801814189_);" points="1104.83,1130.97 
				1104.83,1053.45 961.39,1021.93 961.39,1130.97 			"/>
			
				<linearGradient id="SVGID_00000021097078354320838250000002173807309476614327_" gradientUnits="userSpaceOnUse" x1="620.6591" y1="986.8715" x2="944.0344" y2="1070.3722">
				<stop  offset="0" style="stop-color:#C5E8DA"/>
				<stop  offset="1" style="stop-color:#71A6B0"/>
			</linearGradient>
			<polygon style="fill:url(#SVGID_00000021097078354320838250000002173807309476614327_);" points="1104.83,1034.06 876.69,982.73 
				729.82,1092.89 834.34,1107.98 834.34,1100.09 961.39,1021.93 1104.83,1053.45 			"/>
			
				<linearGradient id="SVGID_00000137116130914134290600000018072262371780947639_" gradientUnits="userSpaceOnUse" x1="990.7614" y1="819.9199" x2="990.7614" y2="1042.8911">
				<stop  offset="0" style="stop-color:#C5E8DA"/>
				<stop  offset="1" style="stop-color:#71A6B0"/>
			</linearGradient>
			<polygon style="fill:url(#SVGID_00000137116130914134290600000018072262371780947639_);" points="876.69,955.3 996.59,984.53 
				997.6,896.51 876.81,863.06 876.81,831.37 1104.83,898.96 1104.83,1034.06 876.69,982.73 			"/>
			
				<linearGradient id="SVGID_00000114041093554506153720000002921610581132499328_" gradientUnits="userSpaceOnUse" x1="802.4673" y1="826.0079" x2="802.4673" y2="1098.1288">
				<stop  offset="0" style="stop-color:#FFFFFF"/>
				<stop  offset="0.648" style="stop-color:#FDF0CA"/>
				<stop  offset="1" style="stop-color:#DED7C1"/>
			</linearGradient>
			<polygon style="fill:url(#SVGID_00000114041093554506153720000002921610581132499328_);" points="728.13,974.23 729.82,1092.89 
				876.69,982.73 876.69,955.3 737.59,1064.78 735.73,992.81 876.81,863.06 876.81,831.37 			"/>
			
				<linearGradient id="SVGID_00000143608840036807131920000015132348114440745879_" gradientUnits="userSpaceOnUse" x1="755.8457" y1="957.7526" x2="755.8457" y2="1116.4297">
				<stop  offset="0" style="stop-color:#C5E8DA"/>
				<stop  offset="1" style="stop-color:#71A6B0"/>
			</linearGradient>
			<polygon style="fill:url(#SVGID_00000143608840036807131920000015132348114440745879_);" points="775.96,1034.59 735.73,992.81 
				737.59,1064.78 			"/>
			
				<linearGradient id="SVGID_00000156580248889118587540000016951803111497383100_" gradientUnits="userSpaceOnUse" x1="683.1282" y1="923.1642" x2="822.6843" y2="1062.7203">
				<stop  offset="0" style="stop-color:#C5E8DA"/>
				<stop  offset="1" style="stop-color:#71A6B0"/>
			</linearGradient>
			<polygon style="fill:url(#SVGID_00000156580248889118587540000016951803111497383100_);" points="783.21,1004.65 783.31,1028.8 
				775.96,1034.59 735.73,992.81 			"/>
			
				<linearGradient id="SVGID_00000176744321491132536010000004370906326658846882_" gradientUnits="userSpaceOnUse" x1="735.7319" y1="933.855" x2="934.3431" y2="933.855">
				<stop  offset="0" style="stop-color:#C5E8DA"/>
				<stop  offset="1" style="stop-color:#71A6B0"/>
			</linearGradient>
			<polygon style="fill:url(#SVGID_00000176744321491132536010000004370906326658846882_);" points="785.23,1003.23 934.34,878.99 
				876.81,863.06 735.73,992.81 783.21,1004.65 			"/>
			
				<linearGradient id="SVGID_00000126322802137183712410000008328285951288080809_" gradientUnits="userSpaceOnUse" x1="783.207" y1="953.894" x2="934.537" y2="953.894">
				<stop  offset="0" style="stop-color:#FBAE94"/>
				<stop  offset="1" style="stop-color:#DB9BB5"/>
			</linearGradient>
			<polygon style="fill:url(#SVGID_00000126322802137183712410000008328285951288080809_);" points="934.54,886.71 934.34,969.19 
				876.69,955.3 783.31,1028.8 783.21,1004.65 934.34,878.99 			"/>
			
				<linearGradient id="SVGID_00000100356339413149752110000014194048675622031268_" gradientUnits="userSpaceOnUse" x1="934.3431" y1="931.7615" x2="997.6047" y2="931.7615">
				<stop  offset="0" style="stop-color:#FBAE94"/>
				<stop  offset="1" style="stop-color:#DBA7A9"/>
			</linearGradient>
			<polygon style="fill:url(#SVGID_00000100356339413149752110000014194048675622031268_);" points="997.16,935.54 997.6,896.51 
				934.34,878.99 934.34,969.19 996.59,984.53 			"/>
		</g>
	</g>
</g>
</svg>
